Coordinates
version=1
nRows=17
nColumns=40
inDegrees=yes

Units are S.I. units (second, meters, Newtons, ...)
Angles are in degrees.

endheader
time	pelvis_tilt	pelvis_list	pelvis_rotation	pelvis_tx	pelvis_ty	pelvis_tz	hip_flexion_r	hip_adduction_r	hip_rotation_r	knee_angle_r	knee_angle_r_beta	ankle_angle_r	subtalar_angle_r	mtp_angle_r	hip_flexion_l	hip_adduction_l	hip_rotation_l	knee_angle_l	knee_angle_l_beta	ankle_angle_l	subtalar_angle_l	mtp_angle_l	lumbar_extension	lumbar_bending	lumbar_rotation	arm_flex_r	arm_add_r	arm_rot_r	elbow_flex_r	pro_sup_r	wrist_flex_r	wrist_dev_r	arm_flex_l	arm_add_l	arm_rot_l	elbow_flex_l	pro_sup_l	wrist_flex_l	wrist_dev_l
      0.55000000	     -1.64380734	     -1.33304985	      6.82407596	     -0.80007354	      0.88143488	      1.40311176	     32.83439917	     -4.06200148	    -18.31232681	    -29.36744777	     -0.51255866	     -2.76430074	     -2.45842158	     -0.12514122	    -11.36964866	     -1.87103138	     11.71668238	     -9.55019120	     -0.16668228	     12.64758104	     -9.68141201	     -5.94169495	    -10.89048450	      3.15305915	     -7.94743719	     -0.24704660	    -11.56367869	     13.64268872	     13.81184137	     89.95437384	      0.00000000	      0.00000000	     18.60180813	     11.42660328	    -20.97242826	     35.69450866	     89.95437384	      0.00000000	      0.00000000
      0.56000000	     -1.38129669	     -1.64638067	      6.87617789	     -0.78772736	      0.88038098	      1.40312084	     32.66130956	     -3.70327379	    -19.59900698	    -27.35318647	     -0.47740316	     -3.38040753	     -2.02446044	      0.00719353	    -12.43194395	     -1.31712995	     11.68446301	     -9.68743693	     -0.16907767	     12.62184231	     -9.71705611	     -5.97414014	    -11.01892531	      3.54902140	     -8.11267908	     -0.17116017	    -11.47049686	     13.26453284	     13.23467015	     89.95437384	      0.00000000	      0.00000000	     18.63545248	     11.40456789	    -19.09464769	     37.53456965	     89.95437384	      0.00000000	      0.00000000
      0.57000000	     -1.67800811	     -1.59635422	      6.64275274	     -0.77555774	      0.87849124	      1.40345008	     33.31279910	     -3.61476914	    -20.37058289	    -26.14213138	     -0.45626627	     -3.40688796	     -1.91434974	      0.06331515	    -12.85914060	     -1.31247222	     11.51676353	     -9.91777723	     -0.17309787	     12.49157869	     -9.60594966	     -5.95270220	    -10.55354543	      3.42630294	     -7.81914239	     -0.48655846	    -11.48445490	     13.14711519	     13.09121348	     89.95437384	      0.00000000	      0.00000000	     18.88155229	     11.52851280	    -18.51266664	     39.06214548	     89.95437384	      0.00000000	      0.00000000
      0.58000000	     -1.52948185	     -1.98909054	      6.75776118	     -0.76278914	      0.87757979	      1.40348659	     33.15265477	     -3.11770267	    -21.48322199	    -24.91044447	     -0.43476927	     -3.61011298	     -1.75714528	      0.13684786	    -13.60034299	     -0.63902805	     11.18142336	    -10.42598430	     -0.18196775	     12.33106630	     -9.51195716	     -6.03363316	    -10.52419098	      3.91639175	     -8.09256996	     -0.31785894	    -11.39057434	     12.73693463	     12.42674103	     89.95437384	      0.00000000	      0.00000000	     18.47068825	     11.58667889	    -16.52601680	     41.37861169	     89.95437384	      0.00000000	      0.00000000
      0.59000000	     -1.75129326	     -1.91043107	      6.55738564	     -0.74974737	      0.87615891	      1.40378351	     33.60804872	     -2.99750741	    -21.86238188	    -24.65046827	     -0.43023183	     -3.39576662	     -1.82065955	      0.14502456	    -13.98132683	     -0.60592719	     10.83647224	    -11.04718494	     -0.19280975	     12.00482340	     -9.28899673	     -5.94878736	    -10.05521528	      3.78142595	     -7.59020612	     -0.78582726	    -11.45621233	     12.66198702	     12.36403865	     89.95437384	      0.00000000	      0.00000000	     18.72337667	     11.52564867	    -16.15579207	     42.57255209	     89.95437384	      0.00000000	      0.00000000
      0.60000000	     -1.39959482	     -2.53309492	      6.91660200	     -0.73598112	      0.87601114	      1.40385701	     32.93268969	     -2.18816733	    -22.79190967	    -24.06419884	     -0.41999950	     -2.94872619	     -2.23950658	      0.26723092	    -14.79873441	      0.49846025	     10.46589007	    -11.84483665	     -0.20673140	     11.51620618	     -9.35005054	     -5.97170164	    -10.14251343	      4.56371774	     -8.25754837	     -0.46979413	    -11.27087586	     12.04488072	     11.59931268	     89.95437384	      0.00000000	      0.00000000	     17.80057803	     11.72993342	    -13.97782070	     45.25067591	     89.95437384	      0.00000000	      0.00000000
      0.61000000	     -1.32692838	     -2.79731320	      7.00516613	     -0.72175145	      0.87553648	      1.40385229	     32.62725061	     -1.63994473	    -22.93076163	    -24.14998299	     -0.42149672	     -2.58970180	     -2.79707029	      0.44461217	    -15.34038524	      1.07526449	     10.25455852	    -12.67694780	     -0.22125448	     10.71181244	     -9.41079642	     -5.96746209	     -9.85388695	      4.91702767	     -8.37050232	     -0.58442450	    -11.25408261	     11.58580110	     11.25680458	     89.95437384	      0.00000000	      0.00000000	     17.11671715	     11.85577681	    -12.86204227	     47.31215322	     89.95437384	      0.00000000	      0.00000000
      0.62000000	     -1.27518195	     -3.24913238	      7.02391382	     -0.70712931	      0.87524643	      1.40431335	     32.17510211	     -0.64695973	    -22.42466344	    -24.28320689	     -0.42382191	     -2.68219893	     -4.17814624	      1.30381097	    -15.66193343	      2.01947633	     10.76284519	    -13.83333656	     -0.24143727	      9.38116048	    -10.40597693	     -6.29659154	     -9.49931186	      5.43049146	     -8.27126119	     -0.82696964	    -11.21823754	     10.65786687	     11.06177753	     89.95437384	      0.00000000	      0.00000000	     16.50239847	     11.89296623	    -11.89866927	     49.02759757	     89.95437384	      0.00000000	      0.00000000
      0.63000000	     -1.24631139	     -3.37261256	      7.17407124	     -0.69223567	      0.87513495	      1.40419156	     31.62161089	     -0.16269989	    -21.91209825	    -24.81973669	     -0.43318612	     -2.48203981	     -4.65808986	      1.54011552	    -15.95829124	      2.47157497	     10.22396215	    -15.02181499	     -0.26218013	      8.16764825	    -10.12490670	     -6.20560622	     -9.08917537	      5.60847795	     -8.50161401	     -0.91752963	    -11.19121187	     10.47992804	     10.70084791	     89.95437384	      0.00000000	      0.00000000	     15.58323642	     12.04831006	    -10.92443379	     50.86644803	     89.95437384	      0.00000000	      0.00000000
      0.64000000	     -1.41145227	     -3.34001467	      7.22147236	     -0.67699543	      0.87485526	      1.40402840	     31.23136917	      0.15350548	    -21.05928468	    -25.58993821	     -0.44662868	     -2.97981976	     -4.49597505	      1.60578763	    -15.96210967	      2.67579221	      9.47994189	    -16.48562144	     -0.28772837	      7.05845339	     -9.54820676	     -5.95154295	     -8.45531586	      5.60088077	     -8.25446253	     -1.57172454	    -11.34007056	     10.34227126	     11.04109528	     89.95437384	      0.00000000	      0.00000000	     14.99486534	     12.00056178	    -10.45694086	     52.01817362	     89.95437384	      0.00000000	      0.00000000
      0.65000000	     -1.49863114	     -3.61442131	      7.50086681	     -0.66151873	      0.87526706	      1.40399734	     30.54666381	      0.75923506	    -20.47686362	    -25.58275028	     -0.44650322	     -4.97998461	     -5.40351973	      2.23922241	    -15.64861704	      3.43784490	      9.41172417	    -18.37925875	     -0.32077858	      4.98517565	     -9.22872155	     -5.71888222	     -7.82436389	      5.94974654	     -8.73505453	     -1.46532296	    -11.23674859	     10.20594956	     10.41231065	     89.95437384	      0.00000000	      0.00000000	     13.70796290	     12.07991416	     -9.12567190	     53.58609455	     89.95437384	      0.00000000	      0.00000000
      0.66000000	     -1.95912341	     -4.18267107	      7.41578383	     -0.64651890	      0.87541272	      1.40498749	     30.67226698	      1.95665145	    -18.95239325	    -26.00420220	     -0.45385895	     -4.93022792	     -9.71205999	      3.51450648	    -14.39306785	      4.65157584	     10.32886344	    -21.22246938	     -0.37040197	      2.61776704	    -10.52864340	     -6.07522544	     -6.83142487	      6.50015493	     -8.55042260	     -1.71450376	    -11.21867592	      9.56298725	     10.40005815	     89.95437384	      0.00000000	      0.00000000	     12.74096488	     11.95364802	     -8.14196227	     54.45084482	     89.95437384	      0.00000000	      0.00000000
      0.67000000	     -2.08630001	     -4.21165882	      7.32441702	     -0.63099130	      0.87655735	      1.40527392	     30.52415103	      1.98290092	    -18.81681943	    -27.22127492	     -0.47510087	     -4.15306605	    -10.26066566	      3.55034421	    -13.64533033	      4.99119737	     10.18897644	    -23.69388746	     -0.41353635	     -0.09257998	     -9.06559697	     -5.56154354	     -6.22280121	      6.54405865	     -8.22643180	     -2.07075503	    -11.28121386	      9.53464237	     10.52918740	     89.95437384	      0.00000000	      0.00000000	     11.97701024	     11.93268865	     -7.84267758	     54.79676189	     89.95437384	      0.00000000	      0.00000000
      0.68000000	     -2.45478764	     -4.30879065	      7.20300240	     -0.61579701	      0.87766614	      1.40582251	     30.51087055	      2.41463296	    -17.80128238	    -28.18438978	     -0.49191040	     -3.45464110	    -10.86164632	      3.67232575	    -12.13174099	      5.46181620	     10.19555944	    -26.84638661	     -0.46855784	     -3.15153507	     -8.10097608	     -5.12176136	     -5.40590555	      6.61632823	     -7.95254146	     -2.21122022	    -11.28135057	      9.55447127	     10.42008439	     89.95437384	      0.00000000	      0.00000000	     11.08388059	     11.87507198	     -7.30547231	     54.99678991	     89.95437384	      0.00000000	      0.00000000
      0.69000000	     -2.56012288	     -4.28046073	      7.14713797	     -0.60067317	      0.87935156	      1.40622160	     29.97858474	      2.81256741	    -16.70242032	    -28.84892097	     -0.50350866	     -2.57674787	    -10.91596815	      3.63153911	    -10.62064388	      5.88289010	     10.29328942	    -30.17040679	     -0.52657294	     -7.16747272	     -6.50820700	     -4.44270268	     -4.94498322	      6.58139287	     -7.66278099	     -2.38327336	    -11.30297982	      9.55189077	     10.62251224	     89.95437384	      0.00000000	      0.00000000	     10.32052862	     11.80085895	     -6.80666389	     54.89257882	     89.95437384	      0.00000000	      0.00000000
      0.70000000	     -2.53943829	     -4.35897778	      7.03703936	     -0.58555605	      0.88128417	      1.40681779	     29.14506922	      3.36716457	    -15.76054606	    -29.22998431	     -0.51015947	     -1.66857805	    -11.29665920	      3.63655199	     -9.15430629	      6.34021433	     10.02387999	    -33.31889178	     -0.58152436	    -11.92188548	     -4.92940971	     -3.66605009	     -4.63433790	      6.64918003	     -7.21071420	     -2.41690463	    -11.32680320	      9.58191965	     10.63062832	     89.95437384	      0.00000000	      0.00000000	      9.64153671	     11.63902230	     -6.38529707	     54.57613970	     89.95437384	      0.00000000	      0.00000000
      0.71000000	     -2.54438772	     -4.72415645	      6.74895825	     -0.57028139	      0.88313553	      1.40794977	     28.11988692	      4.33869082	    -14.99773234	    -29.17768703	     -0.50924671	     -0.63277127	    -12.19008590	      3.80832761	     -7.53662254	      7.11663544	      9.68340671	    -36.41714494	     -0.63559908	    -16.28451878	     -3.37176511	     -3.06609023	     -4.25631192	      7.01179226	     -6.63681150	     -2.36280479	    -11.34841497	      9.61021745	     10.58906601	     89.95437384	      0.00000000	      0.00000000	      8.81118312	     11.54711291	     -6.08142329	     54.20590683	     89.95437384	      0.00000000	      0.00000000
